<svg width="121" height="64" viewBox="0 0 121 64" fill="none" xmlns="http://www.w3.org/2000/svg">
<path d="M121 0H0V64H121V0Z" fill="#171717"/>
<path d="M20.8687 12.5516V51.7753H10.0421V12.5516H20.8687ZM62.134 27.2605H51.1515C51.0737 26.3667 50.866 25.5559 50.5282 24.8282C50.204 24.1004 49.7496 23.4747 49.1654 22.9512C48.5941 22.415 47.8995 22.0064 47.0818 21.7255C46.264 21.4318 45.3358 21.285 44.2973 21.285C42.4797 21.285 40.9415 21.7191 39.6825 22.5873C38.4363 23.4556 37.4884 24.7004 36.8395 26.322C36.2033 27.9436 35.8853 29.8907 35.8853 32.1634C35.8853 34.5639 36.2098 36.5749 36.8589 38.1965C37.5209 39.8051 38.475 41.0183 39.7212 41.8351C40.9674 42.6398 42.4669 43.0418 44.2194 43.0418C45.2189 43.0418 46.1149 42.9206 46.9067 42.6779C47.6985 42.4227 48.3864 42.0588 48.9706 41.5863C49.5548 41.1139 50.0285 40.5458 50.3923 39.8817C50.7684 39.205 51.0218 38.4453 51.1515 37.6025L62.134 37.6791C62.0042 39.3391 61.5301 41.0308 60.7124 42.7545C59.8946 44.4656 58.7329 46.0487 57.2268 47.5042C55.7342 48.9471 53.8841 50.1091 51.6772 50.99C49.4703 51.8709 46.9067 52.3114 43.9858 52.3114C40.3251 52.3114 37.0406 51.5391 34.1328 49.9941C31.2379 48.4491 28.9467 46.1764 27.2591 43.1759C25.5845 40.1755 24.7472 36.5045 24.7472 32.1634C24.7472 27.7967 25.604 24.1195 27.3175 21.1318C29.0311 18.1313 31.3418 15.8649 34.2496 14.3327C37.1576 12.7878 40.403 12.0153 43.9858 12.0153C46.5042 12.0153 48.8215 12.3537 50.9373 13.0304C53.0532 13.7071 54.9098 14.6966 56.5062 15.999C58.103 17.2886 59.3883 18.8782 60.3618 20.7679C61.3356 22.6575 61.926 24.8218 62.134 27.2605ZM65.949 51.7753V12.5516H94.69V21.1318H76.7757V27.8733H93.2102V36.4534H76.7757V43.195H94.6121V51.7753H65.949ZM104.96 52.3883C103.455 52.3883 102.163 51.8709 101.085 50.8369C100.021 49.7898 99.4952 48.5196 99.508 47.0256C99.4952 45.5698 100.021 44.325 101.085 43.291C102.163 42.2565 103.455 41.7395 104.96 41.7395C106.388 41.7395 107.648 42.2565 108.738 43.291C109.841 44.325 110.399 45.5698 110.413 47.0256C110.399 48.0216 110.133 48.928 109.614 49.7453C109.108 50.5496 108.446 51.1942 107.628 51.6796C106.81 52.1521 105.921 52.3883 104.96 52.3883Z" fill="white"/>
</svg>
